<svg xmlns="http://www.w3.org/2000/svg" viewBox="0 0 512 512"><path fill="#1a5da1" fill-rule="evenodd" d="M404.3 512c-5.5-75.9-69.4-136.3-146.7-136.3-77.3 0-141.1 60.4-146.7 136.3h293.4z" clip-rule="evenodd"/><path fill="#f9c5b8" fill-rule="evenodd" d="M223.3 349.6h68.6v30.2c6.9 1.6 13.7 3.8 20.2 6.4-10.6 20.4-31.9 34.4-56.5 34.4-24 0-44.9-13.4-55.7-33 7.5-3.2 15.4-5.9 23.4-7.8v-30.2z" clip-rule="evenodd"/><path fill="#f4a99b" fill-rule="evenodd" d="M291.9 369.3c-22.3 3.1-46.2 3.1-68.6 0v-19.7h68.6v19.7z" clip-rule="evenodd"/><path fill="#31383e" fill-rule="evenodd" d="M256 324.9c89.5 0 162.4-73 162.4-162.4S345.5 0 256 0 93.6 73 93.6 162.4 166.5 324.9 256 324.9z" clip-rule="evenodd"/><path fill="#f4a99b" fill-rule="evenodd" d="M137.1 238.2c22.5 2.4 40.8 21.1 40.8 41.9 0 20.8-18.3 35.8-40.8 33.4-22.6-2.3-40.8-21.1-40.8-41.9s18.3-35.8 40.8-33.4zm237.8 0c-22.5 2.4-40.8 21.1-40.8 41.9 0 20.8 18.3 35.8 40.8 33.4 22.6-2.3 40.8-21.1 40.8-41.9s-18.3-35.8-40.8-33.4z" clip-rule="evenodd"/><path fill="#f9c5b8" fill-rule="evenodd" d="M163.1 329.7c-36.1-28.9-16.2-52.3-28-74.9-31.5-60.5-13.7-103.1 24.2-127.8 35.9 85.2 157.6 85.2 193.5 0 37.8 24.6 55.6 67.2 24.2 127.8-11.7 22.6 8.1 46-28 74.9-40.9 32.7-145.2 32.7-185.9 0z" clip-rule="evenodd"/><path fill="#f39e9c" fill-rule="evenodd" d="M188.2 269c13 0 23.6-7.1 23.6-15.9s-10.6-15.9-23.6-15.9-23.6 7.1-23.6 15.9 10.6 15.9 23.6 15.9z" clip-rule="evenodd"/><path fill="#42494e" d="M206.5 218.3c.7 2.1-.4 4.4-2.4 5.1-.4.2-.9.2-1.3.2-1.6 0-3.2-1-3.8-2.7-1.4-3.9-5.8-6.5-10.7-6.5-5 0-9.4 2.7-10.7 6.6-.7 2.1-3 3.2-5.1 2.4-2.1-.7-3.2-3-2.4-5.1 2.5-7.1 9.9-11.9 18.3-11.9 8.2.1 15.6 4.8 18.1 11.9zm135.6 0c-2.5-7.1-9.9-11.9-18.3-11.9s-15.8 4.8-18.3 11.9c-.7 2.1.4 4.4 2.4 5.1 2.1.7 4.4-.4 5.1-2.4 1.4-3.9 5.8-6.5 10.7-6.5 5 0 9.4 2.7 10.7 6.6.6 1.6 2.1 2.7 3.8 2.7.4 0 .9-.1 1.3-.2 2.2-.9 3.3-3.2 2.6-5.3z"/><path fill="#c47651" fill-rule="evenodd" d="M295.9 282.8c0 21.9-18 39.9-39.9 39.9s-39.9-17.9-39.9-39.9h79.8z" clip-rule="evenodd"/><path fill="#e3a191" d="M255.5 268h-12c-2.2 0-4-1.8-4-4v-21.6c0-2.2 1.8-4 4-4s4 1.8 4 4V260h8c2.2 0 4 1.8 4 4s-1.8 4-4 4z"/><path fill="#f39e9c" fill-rule="evenodd" d="M323.8 269c13 0 23.6-7.1 23.6-15.9s-10.6-15.9-23.6-15.9-23.6 7.1-23.6 15.9 10.6 15.9 23.6 15.9z" clip-rule="evenodd"/><path fill="#0d3b69" fill-rule="evenodd" d="M172.7 402.9V512h-21.5v-90.5c6.5-6.8 13.7-13.1 21.5-18.6zm191.4 18.6V512h-21.5V402.9c7.7 5.5 14.9 11.8 21.5 18.6z" clip-rule="evenodd"/><path fill="#f2f2f3" d="m263.3 453.6 4.8-4.8c1.6-1.6 1.6-4.1 0-5.7-1.6-1.6-4.1-1.6-5.7 0l-4.8 4.8-4.8-4.8c-1.6-1.6-4.1-1.6-5.7 0-1.6 1.6-1.6 4.1 0 5.7l4.8 4.8-4.8 4.8c-1.6 1.6-1.6 4.1 0 5.7.8.8 1.8 1.2 2.8 1.2 1 0 2-.4 2.8-1.2l4.8-4.8 4.8 4.8c.8.8 1.8 1.2 2.8 1.2 1 0 2-.4 2.8-1.2 1.6-1.6 1.6-4.1 0-5.7l-4.6-4.8zm4.8 22.1c-1.6-1.6-4.1-1.6-5.7 0l-4.8 4.8-4.8-4.8c-1.6-1.6-4.1-1.6-5.7 0-1.6 1.6-1.6 4.1 0 5.7l4.8 4.8-4.8 4.8c-1.6 1.6-1.6 4.1 0 5.7.8.8 1.8 1.2 2.8 1.2s2-.4 2.8-1.2l4.8-4.8 4.8 4.8c.8.8 1.8 1.2 2.8 1.2 1 0 2-.4 2.8-1.2 1.6-1.6 1.6-4.1 0-5.7l-4.8-4.8 4.8-4.8c1.8-1.6 1.8-4.1.2-5.7z"/></svg>