<svg xmlns="http://www.w3.org/2000/svg" width="32" height="32"><g color="#000" font-family="sans-serif" font-size="45.121" font-weight="400" letter-spacing="0" word-spacing="0"><path fill="#25b39e" d="M3.001 1031.362v11h22v-4.029l-1.56.012v1.543c-.001 1.328-1.6 2-2.55 1.072l-2.687-2.62h-1.703a1.5 1.5 0 0 1-1.5-1.5v-5.477h-12zm1 1h5v5h-5v-5zm8 7h1c.554 0 1 .446 1 1s-.446 1-1 1h-1c-.554 0-1-.446-1-1s.446-1 1-1zm4 0h1c.554 0 1 .446 1 1s-.446 1-1 1h-1c-.554 0-1-.446-1-1s.446-1 1-1z" overflow="visible" style="isolation:auto;mix-blend-mode:normal" transform="translate(0 -1020.362)"/><path style="line-height:125%;text-indent:0;text-align:start;text-decoration-line:none;text-decoration-style:solid;text-decoration-color:#000;text-transform:none;block-progression:tb;isolation:auto;mix-blend-mode:normal" d="M1.5 1029.361a.5.5 0 0 0-.5.5v17a.5.5 0 0 0 .5.5h25a.5.5 0 0 0 .5-.5v-9h-1v8.5H2v-16h14.836v-1H1.5z" font-size="medium" overflow="visible" transform="translate(0 -1020.362)"/><path fill-rule="evenodd" d="M2 1043.361v1h24v-1H2z" font-size="medium" overflow="visible" style="line-height:125%;text-indent:0;text-align:start;text-decoration-line:none;text-decoration-style:solid;text-decoration-color:#000;text-transform:none;block-progression:tb;isolation:auto;mix-blend-mode:normal" transform="translate(0 -1020.362)"/><path style="line-height:125%;text-indent:0;text-align:start;text-decoration-line:none;text-decoration-style:solid;text-decoration-color:#000;text-transform:none;block-progression:tb;isolation:auto;mix-blend-mode:normal" d="M10.5 1046.361a.5.5 0 0 0-.5.5v4a.5.5 0 0 0 .5.5h7a.5.5 0 0 0 .5-.5v-4a.5.5 0 0 0-.5-.5h-7zm.5 1h6v3h-6v-3z" font-size="medium" overflow="visible" transform="translate(0 -1020.362)"/><path fill-rule="evenodd" d="M7 1050.361v1h14v-1H7z" font-size="medium" overflow="visible" style="line-height:125%;text-indent:0;text-align:start;text-decoration-line:none;text-decoration-style:solid;text-decoration-color:#000;text-transform:none;block-progression:tb;isolation:auto;mix-blend-mode:normal" transform="translate(0 -1020.362)"/><path style="line-height:125%;text-indent:0;text-align:start;text-decoration-line:none;text-decoration-style:solid;text-decoration-color:#000;text-transform:none;block-progression:tb;isolation:auto;mix-blend-mode:normal" d="M16.5 1021.361a.5.5 0 0 0-.5.5v14.977a.5.5 0 0 0 .5.5h1.758l.363.01 2.969 2.898a.5.5 0 0 0 .85-.357v-2.54l2.619-.01H30.5a.5.5 0 0 0 .5-.5V1021.864a.5.5 0 0 0-.5-.5h-14zm.5 1h13v13.977h-4.941a.5.5 0 0 0-.002 0l-3.12.012a.5.5 0 0 0-.49.508l-.008-.01v1.85l-2.261-2.208a.5.5 0 0 0-.338-.142l-.567-.012a.5.5 0 0 0-.01 0H17v-13.977z" font-size="medium" overflow="visible" transform="translate(0 -1020.362)"/><path fill-rule="evenodd" d="M4 1038.361v1h4v-1H4zm6-6v1h4v-1h-4zm0 2v1h4v-1h-4zm0 2v1h4v-1h-4z" font-size="medium" overflow="visible" style="line-height:125%;text-indent:0;text-align:start;text-decoration-line:none;text-decoration-style:solid;text-decoration-color:#000;text-transform:none;block-progression:tb;isolation:auto;mix-blend-mode:normal" transform="translate(0 -1020.362)"/><path fill="#f8b84e" d="M28.996 1029.365a5 5 0 0 1-5 5 5 5 0 0 1-5-5 5 5 0 0 1 5-5 5 5 0 0 1 5 5z" overflow="visible" style="isolation:auto;mix-blend-mode:normal" transform="translate(0 -1020.362)"/><path style="line-height:125%;text-indent:0;text-align:start;text-decoration-line:none;text-decoration-style:solid;text-decoration-color:#000;text-transform:none;block-progression:tb;isolation:auto;mix-blend-mode:normal" d="M18.006 1024.377v1h1.701v-1h-1.701zm1.726.986v1h7.077l-.975 3h-5.305v1h5.668a.5.5 0 0 0 .477-.345l1.299-4a.5.5 0 0 0-.477-.655h-7.764z" font-size="medium" overflow="visible" transform="translate(0 -1020.362)"/><path style="line-height:125%;text-indent:0;text-align:start;text-decoration-line:none;text-decoration-style:solid;text-decoration-color:#000;text-transform:none;block-progression:tb;isolation:auto;mix-blend-mode:normal" d="M19.639 1024.363a.5.5 0 0 0-.46.623l1.682 7a.5.5 0 0 0 .487.383h4.154a.5.5 0 1 0 0-1H21.74l-1.588-6.617a.5.5 0 0 0-.513-.389z" font-size="medium" overflow="visible" transform="translate(0 -1020.362)"/><path style="line-height:125%;text-indent:0;text-align:start;text-decoration-line:none;text-decoration-style:solid;text-decoration-color:#000;text-transform:none;block-progression:tb;isolation:auto;mix-blend-mode:normal" d="M21.463 1031.365c-.822 0-1.5.678-1.5 1.5s.678 1.5 1.5 1.5 1.498-.678 1.498-1.5-.676-1.5-1.498-1.5zm0 1c.281 0 .498.218.498.5 0 .282-.217.5-.498.5a.493.493 0 0 1-.5-.5c0-.282.219-.5.5-.5zm3.955-1c-.822 0-1.498.678-1.498 1.5s.676 1.5 1.498 1.5 1.5-.678 1.5-1.5-.678-1.5-1.5-1.5zm0 1c.281 0 .5.218.5.5 0 .282-.219.5-.5.5a.491.491 0 0 1-.498-.5c0-.282.217-.5.498-.5z" font-size="medium" overflow="visible" transform="translate(0 -1020.362)"/><path fill-rule="evenodd" d="M23.361 1027.363v1h3.596v-1h-3.596z" font-size="medium" overflow="visible" style="line-height:125%;text-indent:0;text-align:start;text-decoration-line:none;text-decoration-style:solid;text-decoration-color:#000;text-transform:none;block-progression:tb;isolation:auto;mix-blend-mode:normal" transform="translate(0 -1020.362)"/></g></svg>